<svg xmlns="http://www.w3.org/2000/svg" viewBox="0 0 1010 660" font-family="-apple-system, 'Segoe UI', Roboto, Helvetica, Arial, sans-serif">
  <style>
    .node   { fill: #f8fafc; stroke: #cbd5e1; stroke-width: 1.5; }
    .label  { fill: #1f2937; font-size: 18px; font-weight: 600; }
    .caption{ fill: #64748b; font-size: 13.5px; }
    .icon   { stroke: #64748b; stroke-width: 2; fill: none; stroke-linecap: round; stroke-linejoin: round; }
    .arrow  { stroke: #94a3b8; stroke-width: 2.5; fill: none; }
    .ahead  { fill: #94a3b8; }
    .gate      { fill: #0d9488; }
    .gatelabel { fill: #ffffff; font-size: 18px; font-weight: 700; }
    .gatecap   { fill: #ccfbf1; font-size: 13.5px; }
    .gateicon  { stroke: #ffffff; stroke-width: 2; fill: none; stroke-linecap: round; stroke-linejoin: round; }
    .chip      { fill: #115e59; }
    .chiptext  { fill: #99f6e4; font-size: 11.5px; font-weight: 700; letter-spacing: 1px; }
    .zone      { fill: rgba(13, 148, 136, 0.05); stroke: rgba(13, 148, 136, 0.45); stroke-width: 1.5; stroke-dasharray: 6 5; }
    .zonetext  { fill: #0d9488; font-size: 13px; font-style: italic; font-weight: 500; }
    @media (prefers-color-scheme: dark) {
      .node   { fill: #161b22; stroke: #30363d; }
      .label  { fill: #e6edf3; }
      .caption{ fill: #8b949e; }
      .icon   { stroke: #8b949e; }
      .arrow  { stroke: #6e7681; }
      .ahead  { fill: #6e7681; }
      .zone   { fill: rgba(45, 212, 191, 0.06); stroke: rgba(45, 212, 191, 0.4); }
      .zonetext { fill: #2dd4bf; }
    }
  </style>

  <defs>
    <marker id="ah" viewBox="0 0 10 10" refX="8" refY="5" markerWidth="7" markerHeight="7" orient="auto">
      <path class="ahead" d="M 0 0 L 10 5 L 0 10 z"/>
    </marker>
  </defs>

  <!-- zona "seu espaço" ao redor de Desenvolva -->
  <rect class="zone" x="133" y="375" width="242" height="215" rx="16"/>
  <text class="zonetext" x="254" y="572" text-anchor="middle">seu espaço — construa como quiser</text>

  <!-- setas da linha 1 -->
  <line class="arrow" x1="222" y1="215" x2="258" y2="215" marker-end="url(#ah)"/>
  <line class="arrow" x1="468" y1="215" x2="504" y2="215" marker-end="url(#ah)"/>
  <line class="arrow" x1="714" y1="215" x2="750" y2="215" marker-end="url(#ah)"/>
  <!-- conector linha 1 -> linha 2 -->
  <path class="arrow" d="M 863 302 L 863 336 L 254 336 L 254 402" marker-end="url(#ah)"/>
  <!-- setas da linha 2 -->
  <line class="arrow" x1="356" y1="475" x2="392" y2="475" marker-end="url(#ah)"/>
  <line class="arrow" x1="612" y1="475" x2="648" y2="475" marker-end="url(#ah)"/>

  <!-- 1. Encontre um problema -->
  <rect class="node" x="20" y="150" width="200" height="130" rx="14"/>
  <g class="icon">
    <circle cx="120" cy="178" r="9"/>
    <line x1="116" y1="190" x2="124" y2="190"/>
    <line x1="117" y1="194" x2="123" y2="194"/>
  </g>
  <text class="label" x="120" y="222" text-anchor="middle">Encontre um problema</text>
  <text class="caption" x="120" y="246" text-anchor="middle">algo que valha a pena</text>
  <text class="caption" x="120" y="263" text-anchor="middle">automatizar</text>

  <!-- 2. Solicite um repo -->
  <rect class="node" x="266" y="150" width="200" height="130" rx="14"/>
  <g class="icon">
    <path d="M 352 170 h 10 l 4 5 h 14 v 18 h -28 z"/>
  </g>
  <text class="label" x="366" y="222" text-anchor="middle">Solicite um repo</text>
  <text class="caption" x="366" y="246" text-anchor="middle">criado na organização</text>
  <text class="caption" x="366" y="263" text-anchor="middle">GitHub da empresa</text>

  <!-- 3. Escreva o SPEC -->
  <rect class="node" x="512" y="150" width="200" height="130" rx="14"/>
  <g class="icon">
    <path d="M 600 168 h 14 l 6 6 v 20 h -20 z"/>
    <line x1="604" y1="178" x2="614" y2="178"/>
    <line x1="604" y1="184" x2="614" y2="184"/>
    <path d="M 624 166 l 1.5 4 l 4 1.5 l -4 1.5 l -1.5 4 l -1.5 -4 l -4 -1.5 l 4 -1.5 z"/>
  </g>
  <text class="label" x="612" y="222" text-anchor="middle">Escreva o SPEC</text>
  <text class="caption" x="612" y="246" text-anchor="middle">objetivo · usuários · dados</text>
  <text class="caption" x="612" y="263" text-anchor="middle">distribuição · custos</text>

  <!-- PONTO DE CONTROLE 1: Aprovação do SPEC -->
  <rect class="chip" x="784" y="96" width="158" height="22" rx="11"/>
  <text class="chiptext" x="863" y="111" text-anchor="middle">PONTO DE CONTROLE 1</text>
  <rect class="gate" x="758" y="130" width="210" height="170" rx="16"/>
  <g class="gateicon">
    <circle cx="845" cy="160" r="7"/>
    <path d="M 834 182 q 11 -12 22 0"/>
    <circle cx="873" cy="153" r="4"/>
    <circle cx="873" cy="175" r="4"/>
    <line x1="873" y1="157" x2="873" y2="171"/>
    <path d="M 873 153 q 14 0 14 14 v 4" fill="none"/>
    <circle cx="887" cy="175" r="4"/>
  </g>
  <text class="gatelabel" x="863" y="222" text-anchor="middle">Aprovação do SPEC</text>
  <text class="gatecap" x="863" y="248" text-anchor="middle">primeiro merge para a main</text>
  <text class="gatecap" x="863" y="266" text-anchor="middle">revisado pela TI via PR</text>

  <!-- 5. Desenvolva -->
  <rect class="node" x="154" y="410" width="200" height="130" rx="14"/>
  <g class="icon">
    <path d="M 236 430 l -10 11 l 10 11"/>
    <path d="M 272 430 l 10 11 l -10 11"/>
    <line x1="259" y1="428" x2="249" y2="454"/>
  </g>
  <text class="label" x="254" y="482" text-anchor="middle">Desenvolva</text>
  <text class="caption" x="254" y="506" text-anchor="middle">branches · commits pequenos</text>
  <text class="caption" x="254" y="523" text-anchor="middle">com IA · banco de DEV</text>

  <!-- PONTO DE CONTROLE 2: Revisão final -->
  <rect class="chip" x="426" y="356" width="158" height="22" rx="11"/>
  <text class="chiptext" x="505" y="371" text-anchor="middle">PONTO DE CONTROLE 2</text>
  <rect class="gate" x="400" y="390" width="210" height="170" rx="16"/>
  <g class="gateicon">
    <circle cx="487" cy="420" r="7"/>
    <path d="M 476 442 q 11 -12 22 0"/>
    <circle cx="515" cy="413" r="4"/>
    <circle cx="515" cy="435" r="4"/>
    <line x1="515" y1="417" x2="515" y2="431"/>
    <path d="M 515 413 q 14 0 14 14 v 4" fill="none"/>
    <circle cx="529" cy="435" r="4"/>
  </g>
  <text class="gatelabel" x="505" y="482" text-anchor="middle">Revisão final</text>
  <text class="gatecap" x="505" y="508" text-anchor="middle">somente código revisado</text>
  <text class="gatecap" x="505" y="526" text-anchor="middle">chega à main</text>

  <!-- 7. Publique e mantenha -->
  <rect class="node" x="656" y="410" width="200" height="130" rx="14"/>
  <g class="icon">
    <path d="M 756 426 q 8 8 8 20 l -4 8 h -8 l -4 -8 q 0 -12 8 -20 z"/>
    <circle cx="756" cy="442" r="3"/>
    <path d="M 748 450 l -6 8 M 764 450 l 6 8"/>
  </g>
  <text class="label" x="756" y="482" text-anchor="middle">Publique e mantenha</text>
  <text class="caption" x="756" y="500" text-anchor="middle">apps web publicados pela TI</text>
  <text class="caption" x="756" y="517" text-anchor="middle">os demais conforme o SPEC</text>
  <text class="caption" x="756" y="534" text-anchor="middle">a área dona mantém</text>

  <!-- legenda -->
  <text class="caption" x="505" y="622" text-anchor="middle">SPEC: documento curto que descreve o que o projeto é e como vai funcionar</text>
  <text class="caption" x="505" y="642" text-anchor="middle">PR (pull request): como as mudanças são enviadas para revisão antes de entrar na main</text>
</svg>
